<svg xmlns="http://www.w3.org/2000/svg" style="display:none" fill="currentColor">
  <symbol id="start" viewBox="0 0 24 24"><path d="M7.5 4.86A2 2 0 0 1 10.5 3.1l8.66 6.14a3.36 3.36 0 0 1 0 5.52l-8.66 6.14A2 2 0 0 1 7.5 19.14z"/></symbol>
  <symbol id="complete" viewBox="0 0 24 24"><path fill-rule="evenodd" d="M12 2.5a9.5 9.5 0 1 0 0 19 9.5 9.5 0 0 0 0-19m4.45 6.62a1.5 1.5 0 0 1 .02 2.12l-5.5 5.6a1.5 1.5 0 0 1-2.14.01l-2.75-2.8a1.5 1.5 0 1 1 2.14-2.1l1.68 1.7 4.43-4.52a1.5 1.5 0 0 1 2.12-.01" clip-rule="evenodd"/></symbol>
  <symbol id="adapt" viewBox="0 0 24 24"><path d="M5 4.5a2.5 2.5 0 0 0 0 5h14a2.5 2.5 0 0 0 0-5zm0 10a2.5 2.5 0 0 0 0 5h14a2.5 2.5 0 0 0 0-5z"/><circle cx="9" cy="7" r="3.5" fill="var(--icon-accent,#ff6b2c)"/><circle cx="15" cy="17" r="3.5" fill="var(--icon-accent,#ff6b2c)"/></symbol>
  <symbol id="swap" viewBox="0 0 24 24"><path d="M14.1 3.9a1.5 1.5 0 0 1 2.12 0l4.75 4.75a1.5 1.5 0 0 1 0 2.12l-4.75 4.75a1.5 1.5 0 1 1-2.12-2.12l2.19-2.19H4.5a1.5 1.5 0 0 1 0-3h11.79zM9.9 10.6a1.5 1.5 0 0 1 0 2.12L7.71 14.9H19.5a1.5 1.5 0 0 1 0 3H7.71l2.19 2.19a1.5 1.5 0 1 1-2.12 2.12l-4.75-4.75a1.5 1.5 0 0 1 0-2.12z"/></symbol>
  <symbol id="move" viewBox="0 0 24 24"><path d="M10.5 2.8a1.5 1.5 0 0 1 3 0v2.39l1.94-1.94a1.5 1.5 0 0 1 2.12 2.12L13.5 9.44v5.12l4.06 4.06a1.5 1.5 0 1 1-2.12 2.12L13.5 18.81v2.39a1.5 1.5 0 0 1-3 0v-2.39l-1.94 1.94a1.5 1.5 0 1 1-2.12-2.12l4.06-4.06V9.44L6.44 5.37a1.5 1.5 0 0 1 2.12-2.12l1.94 1.94z"/></symbol>
  <symbol id="skip" viewBox="0 0 24 24"><path d="M4.5 5.25A1.75 1.75 0 0 1 7.18 3.8l7.13 5.46a3.45 3.45 0 0 1 0 5.48L7.18 20.2A1.75 1.75 0 0 1 4.5 18.75zM17.5 4a1.5 1.5 0 0 1 3 0v16a1.5 1.5 0 0 1-3 0z"/></symbol>
  <symbol id="rest" viewBox="0 0 24 24"><path d="M4 8.5A2.5 2.5 0 0 1 6.5 6h3A2.5 2.5 0 0 1 12 8.5V10h4.5A3.5 3.5 0 0 1 20 13.5V18h1a1.5 1.5 0 0 1 0 3h-2.5a1.5 1.5 0 0 1-1.5-1.5V19h-10v.5A1.5 1.5 0 0 1 5.5 21H3a1.5 1.5 0 0 1 0-3h1z"/></symbol>
  <symbol id="timer" viewBox="0 0 24 24"><path fill-rule="evenodd" d="M9 2.5a1.5 1.5 0 0 0 0 3h1.5v1.1a8.5 8.5 0 1 0 3 0V5.5H15a1.5 1.5 0 0 0 0-3zm3 7a1.5 1.5 0 0 1 1.5 1.5v2.38l2.56 1.48a1.5 1.5 0 1 1-1.5 2.6l-3.31-1.91a1.5 1.5 0 0 1-.75-1.3V11A1.5 1.5 0 0 1 12 9.5" clip-rule="evenodd"/></symbol>
  <symbol id="add" viewBox="0 0 24 24"><path d="M10.5 3.5a1.5 1.5 0 0 1 3 0v7h7a1.5 1.5 0 0 1 0 3h-7v7a1.5 1.5 0 0 1-3 0v-7h-7a1.5 1.5 0 0 1 0-3h7z"/></symbol>
  <symbol id="edit" viewBox="0 0 24 24"><path d="m18.72 2.97 2.31 2.31a2.3 2.3 0 0 1 0 3.25L10.06 19.5l-5.27 1.5 1.5-5.27L17.25 4.78a2.3 2.3 0 0 1 3.25 0zM4 4.5A2.5 2.5 0 0 0 1.5 7v12.5A2.5 2.5 0 0 0 4 22h12.5a2.5 2.5 0 0 0 2.5-2.5V16a1.5 1.5 0 0 0-3 0v3H4.5v-11H8a1.5 1.5 0 0 0 0-3z"/></symbol>
  <symbol id="more" viewBox="0 0 24 24"><circle cx="5" cy="12" r="2.25"/><circle cx="12" cy="12" r="2.25"/><circle cx="19" cy="12" r="2.25"/></symbol>
  <symbol id="chevron-right" viewBox="0 0 24 24"><path d="M8.22 3.97a1.5 1.5 0 0 1 2.12 0l6.97 6.97a1.5 1.5 0 0 1 0 2.12l-6.97 6.97a1.5 1.5 0 1 1-2.12-2.12L14.13 12 8.22 6.1a1.5 1.5 0 0 1 0-2.12"/></symbol>
  <symbol id="chevron-down" viewBox="0 0 24 24"><path d="M3.97 8.22a1.5 1.5 0 0 1 2.12 0L12 14.13l5.91-5.91a1.5 1.5 0 1 1 2.12 2.12l-6.97 6.97a1.5 1.5 0 0 1-2.12 0l-6.97-6.97a1.5 1.5 0 0 1 0-2.12"/></symbol>
  <symbol id="close" viewBox="0 0 24 24"><path d="M4.94 2.82a1.5 1.5 0 0 1 2.12 0L12 7.76l4.94-4.94a1.5 1.5 0 0 1 2.12 2.12L14.12 9.88l4.94 4.94a1.5 1.5 0 0 1-2.12 2.12L12 12l-4.94 4.94a1.5 1.5 0 1 1-2.12-2.12l4.94-4.94z"/></symbol>
  <symbol id="share" viewBox="0 0 24 24"><path d="M18 2.5a3.5 3.5 0 1 0 2.91 5.44l-7.04 3.52a3.5 3.5 0 0 0-3.74 0L3.09 7.94A3.5 3.5 0 1 0 2 10.5c0-.36.05-.72.16-1.05l7.04 3.52a3.5 3.5 0 0 0 0 2.06L2.16 18.55A3.5 3.5 0 1 0 3.09 21l7.04-3.52a3.5 3.5 0 0 0 3.74 0L20.91 21A3.5 3.5 0 1 0 22 18.55l-7.04-3.52a3.5 3.5 0 0 0 0-2.06L22 9.45A3.5 3.5 0 1 0 18 2.5"/></symbol>
  <symbol id="external-video" viewBox="0 0 24 24"><path d="M4.5 3A3.5 3.5 0 0 0 1 6.5v11A3.5 3.5 0 0 0 4.5 21h15a3.5 3.5 0 0 0 3.5-3.5v-11A3.5 3.5 0 0 0 19.5 3zm5.65 4.27 5.83 3.5a1.45 1.45 0 0 1 0 2.46l-5.83 3.5A1.45 1.45 0 0 1 8 15.48V8.52a1.45 1.45 0 0 1 2.15-1.25"/><path fill="var(--icon-accent,#ff6b2c)" d="M19.25 1.5a1.25 1.25 0 0 1 1.25 1.25v2h2a1.25 1.25 0 1 1 0 2.5h-3.25A1.25 1.25 0 0 1 18 6V2.75a1.25 1.25 0 0 1 1.25-1.25"/></symbol>
</svg>
