<?xml version="1.0" encoding="UTF-8"?>
<!-- Solid navigation sprite. Use with: <svg><use href="...#home" /></svg> -->
<svg xmlns="http://www.w3.org/2000/svg" aria-hidden="true" focusable="false" style="display:none">
  <defs>
    <symbol id="app-mark" viewBox="0 0 24 24">
      <path fill="currentColor" d="M5.05 3.2A2.85 2.85 0 0 0 2.2 6.05v11.9a2.85 2.85 0 0 0 2.85 2.85h4.5V3.2h-4.5Zm9.4 0v17.6h4.5a2.85 2.85 0 0 0 2.85-2.85V6.05a2.85 2.85 0 0 0-2.85-2.85h-4.5Z"/>
      <path fill="var(--icon-accent,#ff6b2c)" d="M10.9 3.2h2.2v17.6h-2.2z"/>
    </symbol>

    <symbol id="home" viewBox="0 0 24 24">
      <path fill="currentColor" d="m20.66 10.16-7.5-6.43a1.77 1.77 0 0 0-2.32 0l-7.5 6.43a1.8 1.8 0 0 0-.63 1.37v7.12A2.35 2.35 0 0 0 5.06 21h13.88a2.35 2.35 0 0 0 2.35-2.35v-7.12a1.8 1.8 0 0 0-.63-1.37ZM14.8 21H9.2v-5.43c0-.48.39-.87.87-.87h3.86c.48 0 .87.39.87.87V21Z"/>
    </symbol>

    <symbol id="plan" viewBox="0 0 24 24">
      <path fill="currentColor" d="M7.1 2.5a1.1 1.1 0 0 1 1.1 1.1v1.05h7.6V3.6a1.1 1.1 0 1 1 2.2 0v1.05h.55a2.65 2.65 0 0 1 2.65 2.65v11.55a2.65 2.65 0 0 1-2.65 2.65H5.45a2.65 2.65 0 0 1-2.65-2.65V7.3a2.65 2.65 0 0 1 2.65-2.65h.55V3.6a1.1 1.1 0 0 1 1.1-1.1Zm-2.1 8.35v8c0 .25.2.45.45.45h13.1c.25 0 .45-.2.45-.45v-8H5Z"/>
      <path fill="currentColor" d="M7.2 13h3.1v3.1H7.2zM13.7 13h3.1v3.1h-3.1z"/>
    </symbol>

    <symbol id="exercises" viewBox="0 0 24 24">
      <path fill="currentColor" d="M3.3 8.1h2.25v7.8H3.3a1.3 1.3 0 0 1-1.3-1.3V9.4a1.3 1.3 0 0 1 1.3-1.3Zm17.4 0h-2.25v7.8h2.25a1.3 1.3 0 0 0 1.3-1.3V9.4a1.3 1.3 0 0 0-1.3-1.3ZM6.55 6.2h2.2v11.6h-2.2zM15.25 6.2h2.2v11.6h-2.2zM9.75 9.35h4.5v5.3h-4.5z"/>
    </symbol>

    <symbol id="history" viewBox="0 0 24 24">
      <path fill="currentColor" d="M12 2.25a9.75 9.75 0 1 1-8.77 5.49L1.9 7.2v5.2a1.1 1.1 0 0 0 1.1 1.1h5.2l-1.57-1.57A7.55 7.55 0 1 0 4.45 6.2a1.1 1.1 0 0 0-2.04-.82A9.75 9.75 0 0 1 12 2.25Zm-.1 4.5c.61 0 1.1.49 1.1 1.1v4.26l3.06 1.76a1.1 1.1 0 1 1-1.1 1.9l-3.61-2.08a1.1 1.1 0 0 1-.55-.95V7.85c0-.61.49-1.1 1.1-1.1Z"/>
    </symbol>

    <symbol id="profile" viewBox="0 0 24 24">
      <path fill="currentColor" d="M12 2.3a5.2 5.2 0 1 1 0 10.4 5.2 5.2 0 0 1 0-10.4Zm0 12.65c5.15 0 9.2 2.68 9.2 6.1 0 .36-.29.65-.65.65H3.45a.65.65 0 0 1-.65-.65c0-3.42 4.05-6.1 9.2-6.1Z"/>
    </symbol>

    <symbol id="theme" viewBox="0 0 24 24">
      <path fill="currentColor" d="M13.2 2.25a1.1 1.1 0 0 1 .3 2.16 7.6 7.6 0 1 0 6.1 9.14 1.1 1.1 0 0 1 2.15.35A9.8 9.8 0 1 1 12.1 2.1c.37 0 .74.05 1.1.15Z"/>
    </symbol>
  </defs>
</svg>
